<svg xmlns="http://www.w3.org/2000/svg" id="Layer_1" data-name="Layer 1" viewBox="0 0 84.14 84.14"><defs><style>.cls-1{fill:none;stroke:#010101;stroke-miterlimit:10;stroke-width:2px;}</style></defs><title>black</title><path d="M164.54,158c-1.8-7-13.42-9.25-14.73-10.08-2.93-1.86-1.88-5.38-1.88-5.38s6.2-2,6.2-15.17-12.4-13-12.4-13-12.4-.18-12.4,13,6.2,15.17,6.2,15.17,1,3.52-1.88,5.38c-1.31.83-12.93,3-14.73,10.08,0,0-2.19,7.08,10.19,9.77a64.38,64.38,0,0,0,25.25,0C166.73,165.13,164.54,158,164.54,158Z" transform="translate(-99.66 -99.66)"/><circle class="cls-1" cx="42.07" cy="42.07" r="41.07"/></svg>