<svg id="Layer_1" class="only-desktop-logo" data-name="Layer 1" xmlns="http://www.w3.org/2000/svg" viewBox="0 0 179.22 34" data-reactid="9"><path class="cls-1" style="fill:#22bd81;" d="M33.81,20.31c.68-.85,6.6-8.37,4.57-12.62C37.54,5.93,35.66,5,32.8,5a11.57,11.57,0,0,0-3.21.5A16.91,16.91,0,0,0,17.15.09h-.23A17,17,0,1,0,33.78,20.33ZM10.7,19.55,17.07,4.68l2.74,6.39A86.91,86.91,0,0,0,10.7,19.55ZM22,9.42,19.27,2.94a14.22,14.22,0,0,1,7.56,3.65A31.72,31.72,0,0,0,22,9.42ZM5.39,25.1A14.25,14.25,0,0,1,14.87,3ZM20.91,13.63l5.9,13.77a.2.2,0,0,0,0,.08,14.22,14.22,0,0,1-19.46-.06A104.83,104.83,0,0,1,20.91,13.63Zm2.2-1.7a28.3,28.3,0,0,1,5.58-3.25,14.2,14.2,0,0,1,.12,16.55ZM31.4,7.87a8.58,8.58,0,0,1,1.4-.13c1.73,0,2.79.37,3.14,1.11.62,1.29-.47,4-1.93,6.42A16.76,16.76,0,0,0,31.4,7.87Z" data-reactid="10"></path><polygon class="cls-2" style="fill:#353435;" points="50.07 11.87 55.85 11.87 55.85 27.94 59.47 27.94 59.47 11.87 65.26 11.87 65.26 8.91 50.07 8.91 50.07 11.87" data-reactid="11"></polygon><polygon class="cls-2" points="81.15 16.97 73.35 16.97 73.35 8.91 69.73 8.91 69.73 27.94 73.35 27.94 73.35 19.93 81.15 19.93 81.15 27.94 84.77 28.06 84.77 9.02 81.15 8.9 81.15 16.97" data-reactid="12"></polygon><polygon class="cls-2" points="94.39 24.83 94.39 19.93 103.05 19.93 103.05 16.97 94.39 16.97 94.39 12.02 104.54 12.02 104.53 8.91 90.77 9.02 90.78 28.05 104.54 27.94 104.54 24.83 94.39 24.83" data-reactid="13"></polygon><path class="cls-2" d="M142.55,16.88c-.9-.09-1.71-.19-2.33-.29a3.91,3.91,0,0,1-2.12-.86,1.68,1.68,0,0,1-.63-1.27,2.11,2.11,0,0,1,.94-1.83,4,4,0,0,1,2.3-.61,10.1,10.1,0,0,1,5,1.4l.18.11,2-2.69-.22-.13a12.83,12.83,0,0,0-6.87-2,7.89,7.89,0,0,0-5.13,1.55,5.1,5.1,0,0,0-1.9,4.12,4.87,4.87,0,0,0,1.52,3.6,7.45,7.45,0,0,0,4.22,1.84l2.75.34c1.71.26,2.54,1,2.51,2.26,0,1.56-1.3,2.33-3.88,2.36a9.69,9.69,0,0,1-5.78-1.8l-.17-.12-2.39,2.45.21.16a13,13,0,0,0,8.09,2.58h0c4.89-.05,7.42-2,7.53-5.64A5.21,5.21,0,0,0,147,18.83,7.08,7.08,0,0,0,142.55,16.88Z" data-reactid="14"></path><rect class="cls-2" x="153.18" y="8.91" width="3.62" height="19.03" data-reactid="15"></rect><path class="cls-2" d="M120.43,9l-8.14,19h3.41l1-2.14a8.12,8.12,0,0,1,1-1.86c1.31-1.58,3.55-2.36,7.24-2.53L127.72,28H131L122.9,9Zm3.29,9.47a14,14,0,0,0-4.42,1l2.44-5.67Z" data-reactid="16"></path><path class="cls-2" d="M171.35,9l-2.47,0-8.14,19h3.42l1-2.1a8.57,8.57,0,0,1,1-1.9c1.32-1.58,3.56-2.36,7.25-2.53L176.18,28h3.29Zm.83,9.49a14,14,0,0,0-4.43,1l2.44-5.67Z" data-reactid="17"></path></svg>